<svg id="svg" version="1.1" xmlns="http://www.w3.org/2000/svg" xmlns:xlink="http://www.w3.org/1999/xlink" width="400" height="400" viewBox="0, 0, 400,400"><g id="svgg"><path id="path0" d="M193.614 80.287 C 157.178 84.400,135.135 122.033,149.485 155.629 C 160.418 181.225,189.747 194.452,216.171 185.702 C 244.692 176.259,260.039 145.647,250.638 116.953 C 242.866 93.232,218.385 77.491,193.614 80.287 M138.800 194.957 C 123.212 196.381,109.066 211.550,105.480 230.687 C 104.910 233.731,104.977 292.249,105.553 293.941 C 106.803 297.611,111.130 298.972,127.733 300.917 C 177.309 306.724,232.916 306.330,278.400 299.849 C 290.617 298.108,293.355 296.951,294.518 293.034 C 295.142 290.933,295.144 232.552,294.520 228.351 C 292.346 213.714,281.970 202.243,266.249 197.097 C 259.599 194.921,257.080 194.680,240.933 194.681 L 228.400 194.681 224.890 201.807 C 216.979 217.867,208.465 231.770,201.126 240.611 C 199.098 243.055,199.425 243.072,197.194 240.400 C 189.200 230.824,180.252 214.963,173.601 198.578 L 172.067 194.800 156.633 194.769 C 148.145 194.752,140.120 194.837,138.800 194.957 " stroke="none" fill="#fbfbfb" fill-rule="evenodd"></path><path id="path1" d="M189.600 20.170 C 105.042 26.012,36.927 85.916,21.355 168.133 C 1.235 274.365,77.769 374.863,185.438 383.594 C 302.144 393.058,397.140 292.036,380.649 176.000 C 369.324 96.316,306.084 33.076,226.400 21.751 C 216.574 20.354,198.298 19.569,189.600 20.170 M205.874 80.280 C 250.174 85.777,269.303 139.598,238.415 171.837 C 209.188 202.342,157.220 188.798,146.683 147.929 C 137.136 110.904,168.038 75.586,205.874 80.280 M173.199 197.267 C 179.707 213.809,190.134 232.235,198.081 241.234 L 199.228 242.533 200.429 241.200 C 206.802 234.127,216.633 218.230,224.722 201.917 L 228.333 194.635 243.300 194.737 C 257.547 194.835,258.392 194.868,260.870 195.426 C 277.872 199.255,290.278 210.146,293.878 224.399 C 295.164 229.493,295.239 231.786,295.149 263.333 L 295.067 292.400 294.304 293.953 C 292.685 297.249,290.089 298.288,279.600 299.837 C 233.913 306.582,173.926 306.904,124.533 300.669 C 109.718 298.798,106.386 297.515,105.292 293.262 C 104.654 290.779,104.776 233.124,105.426 230.133 C 108.547 215.780,117.540 202.991,128.133 197.841 C 134.262 194.861,135.329 194.738,155.488 194.699 L 172.177 194.667 173.199 197.267 " stroke="none" fill="#042c54" fill-rule="evenodd"></path><path id="path2" d="M118.933 204.400 C 118.286 205.060,117.816 205.600,117.889 205.600 C 117.962 205.600,118.552 205.060,119.200 204.400 C 119.848 203.740,120.318 203.200,120.244 203.200 C 120.171 203.200,119.581 203.740,118.933 204.400 " stroke="none" fill="#7c94b4" fill-rule="evenodd"></path><path id="path3" d="M237.467 95.733 C 238.189 96.467,238.840 97.067,238.913 97.067 C 238.987 97.067,238.456 96.467,237.733 95.733 C 237.011 95.000,236.360 94.400,236.287 94.400 C 236.213 94.400,236.744 95.000,237.467 95.733 M295.062 261.600 C 295.062 277.807,295.094 284.437,295.133 276.333 C 295.172 268.230,295.172 254.970,295.133 246.867 C 295.094 238.763,295.062 245.393,295.062 261.600 M104.929 261.867 C 104.929 277.487,104.961 283.877,105.000 276.067 C 105.039 268.257,105.039 255.477,105.000 247.667 C 104.961 239.857,104.929 246.247,104.929 261.867 M175.267 304.717 C 175.523 304.784,175.943 304.784,176.200 304.717 C 176.457 304.650,176.247 304.595,175.733 304.595 C 175.220 304.595,175.010 304.650,175.267 304.717 M225.133 304.717 C 225.390 304.784,225.810 304.784,226.067 304.717 C 226.323 304.650,226.113 304.595,225.600 304.595 C 225.087 304.595,224.877 304.650,225.133 304.717 M182.737 304.991 C 183.142 305.053,183.742 305.051,184.070 304.988 C 184.398 304.924,184.067 304.874,183.333 304.876 C 182.600 304.878,182.332 304.930,182.737 304.991 M218.067 304.988 C 218.397 305.052,218.937 305.052,219.267 304.988 C 219.597 304.925,219.327 304.873,218.667 304.873 C 218.007 304.873,217.737 304.925,218.067 304.988 M197.949 305.266 C 199.827 305.312,202.827 305.312,204.616 305.266 C 206.404 305.220,204.867 305.182,201.200 305.182 C 197.533 305.182,196.070 305.220,197.949 305.266 " stroke="none" fill="#587a9a" fill-rule="evenodd"></path><path id="path4" d="M160.791 95.933 L 159.333 97.467 160.867 96.009 C 161.710 95.207,162.400 94.517,162.400 94.476 C 162.400 94.278,162.145 94.509,160.791 95.933 M253.428 134.267 C 253.427 135.587,253.472 136.160,253.528 135.541 C 253.584 134.922,253.585 133.842,253.530 133.141 C 253.475 132.440,253.429 132.947,253.428 134.267 M237.458 172.600 L 235.867 174.267 237.533 172.675 C 238.450 171.800,239.200 171.050,239.200 171.008 C 239.200 170.811,238.937 171.052,237.458 172.600 M197.800 188.463 C 198.570 188.517,199.830 188.517,200.600 188.463 C 201.370 188.409,200.740 188.365,199.200 188.365 C 197.660 188.365,197.030 188.409,197.800 188.463 M177.133 304.717 C 177.390 304.784,177.810 304.784,178.067 304.717 C 178.323 304.650,178.113 304.595,177.600 304.595 C 177.087 304.595,176.877 304.650,177.133 304.717 M223.533 304.717 C 223.790 304.784,224.210 304.784,224.467 304.717 C 224.723 304.650,224.513 304.595,224.000 304.595 C 223.487 304.595,223.277 304.650,223.533 304.717 M185.133 304.991 C 185.537 305.052,186.197 305.052,186.600 304.991 C 187.003 304.930,186.673 304.880,185.867 304.880 C 185.060 304.880,184.730 304.930,185.133 304.991 M215.537 304.991 C 215.942 305.053,216.542 305.051,216.870 304.988 C 217.198 304.924,216.867 304.874,216.133 304.876 C 215.400 304.878,215.132 304.930,215.537 304.991 " stroke="none" fill="#8ca4bc" fill-rule="evenodd"></path></g></svg>